<?xml version="1.0" encoding="UTF-8" standalone="no"?>
<!-- Created with Inkscape (http://www.inkscape.org/) -->

<svg
   xmlns:dc="http://purl.org/dc/elements/1.1/"
   xmlns:cc="http://creativecommons.org/ns#"
   xmlns:rdf="http://www.w3.org/1999/02/22-rdf-syntax-ns#"
   xmlns:svg="http://www.w3.org/2000/svg"
   xmlns="http://www.w3.org/2000/svg"
   xmlns:sodipodi="http://sodipodi.sourceforge.net/DTD/sodipodi-0.dtd"
   xmlns:inkscape="http://www.inkscape.org/namespaces/inkscape"
   width="128pt"
   height="128pt"
   viewBox="0 0 160 160"
   id="svg3403"
   version="1.1"
   inkscape:version="0.91 r13725"
   sodipodi:docname="kurocha.svg">
  <defs
     id="defs3405" />
  <sodipodi:namedview
     id="base"
     pagecolor="#ffffff"
     bordercolor="#666666"
     borderopacity="1.0"
     inkscape:pageopacity="0.0"
     inkscape:pageshadow="2"
     inkscape:zoom="3.5"
     inkscape:cx="104.53051"
     inkscape:cy="99.464665"
     inkscape:document-units="px"
     inkscape:current-layer="g38"
     showgrid="false"
     units="pt"
     inkscape:window-width="1920"
     inkscape:window-height="1054"
     inkscape:window-x="0"
     inkscape:window-y="0"
     inkscape:window-maximized="1" />
  <metadata
     id="metadata3408">
    <rdf:RDF>
      <cc:Work
         rdf:about="">
        <dc:format>image/svg+xml</dc:format>
        <dc:type
           rdf:resource="http://purl.org/dc/dcmitype/StillImage" />
        <dc:title></dc:title>
      </cc:Work>
    </rdf:RDF>
  </metadata>
  <g
     inkscape:label="Layer 1"
     inkscape:groupmode="layer"
     id="layer1"
     transform="translate(0,-892.36223)">
    <g
       id="g36"
       transform="matrix(0.7036536,0,0,0.7036536,-255.86452,913.02177)">
      <g
         id="g38">
        <ellipse
           cx="473.57303"
           cy="186.68559"
           rx="48.167"
           ry="5.8959999"
           id="ellipse40"
           style="fill:#290f01" />
        <g
           id="g42"
           transform="translate(0.40604395,23.956593)">
          <path
             d="m 514.888,59.404 c 5.632,-14.131 -1.051,-20.75 -0.548,-22.182 0.507,-1.437 4.245,-7.809 11.094,-13.888 -2.651,-0.44 -16.256,1.168 -16.256,1.168 l -69.283,19.57 c -1.879,0.688 -8.808,8.596 -10.686,11.355 6.521,-0.771 10.692,0.19 10.692,0.19 0,0 -0.058,1.729 0.362,4.255 0.293,0.809 37.997,0.749 37.997,0.749 l 36.628,-1.217 z"
             id="path44"
             inkscape:connector-curvature="0"
             style="fill:#290f01" />
          <path
             d="m 500.681,42.508 c 0,1.934 -1.563,3.499 -3.5,3.499 -1.935,0 -3.5,-1.565 -3.5,-3.499 0,-1.932 1.565,-3.495 3.5,-3.495 1.936,0 3.5,1.563 3.5,3.495 z"
             id="path46"
             inkscape:connector-curvature="0"
             style="fill:#ffffff" />
          <path
             d="m 466.14,48.982 c 0,1.932 -1.563,3.497 -3.501,3.497 -1.936,0 -3.494,-1.565 -3.494,-3.497 0,-1.933 1.559,-3.5 3.494,-3.5 1.937,0 3.501,1.568 3.501,3.5 z"
             id="path48"
             inkscape:connector-curvature="0"
             style="fill:#ffffff" />
        </g>
        <path
           d="m 578.24004,92.123593 c -2.75,-0.667 -11.296,3.683 -16.417,11.499997 -5.121,7.817 -8.661,13.378 -12.267,14.727 -3.607,1.352 -7.877,-1.169 -9.396,-1.414 -2.16,-9.058 -10.217,-19.941997 -17.749,-24.188997 -0.292,-8.569 -2.104,-10.259 -2.104,-10.259 l -42.226,1.968 -43.854,-1.969 c 0,0 -1.52,4.405 -1.449,8.819 -5.713,5.694 -8.769,7.372 -12.971,13.953997 -1.321,2.072 -2.312,4.176 -3.053,6.702 -2.446,-0.162 -4.192,-1.261 -4.192,-1.261 0,0 -6.231,-17.814997 -10.798,-20.278997 -4.564,-2.463 -12.027,-4.021 -18.404,-1.194 -6.377,2.827 -11.811,10.999997 -13.913,17.809997 -2.101,6.813 -3.115,18.546 2.9,29.627 6.015,11.091 13.623,21.656 29.562,25.572 15.941,3.914 25.125,4.857 25.125,4.857 0.899,1.225 1.832,2.417 2.814,3.571 4.09,3.393 7.664,3.42 10.392,5.708 0,0 -0.143,5.792 1.595,6.227 1.737,0.436 13.365,4.2 36.246,3.623 22.883,-0.583 35.345,-2.32 36.355,-4.2 1.018,-1.888 1.378,-5.438 1.378,-5.438 3.465,-2.889 8.76,-5.181 12.216,-8.028 1.313,-1.683 2.529,-3.439 3.671,-5.252 0,0 13.821,-3.313 18.965,-6.938 5.146,-3.623 9.493,-10.982 11.016,-13.913 1.522,-2.924 6.004,-19.09 9.142,-25.997 3.138,-6.907 6.533,-11.376 9.146,-12.438 2.607,-1.064 7.983,-1.758 7.646,-3.208 -5.335,-2.916997 -6.626,-8.021997 -9.376,-8.687997 z m -194.591,49.176997 c -5.287,-6.236 -10.795,-24.783 -7.099,-34.927 3.695,-10.146997 9.709,-12.752997 18.041,-11.015997 8.333,1.741 10.146,17.316997 11.304,24.707997 1.16,7.393 8.262,7.537 8.262,7.537 0,0 -3.335,5.938 3.258,26.81 -18.585,3.521 -28.475,-6.882 -33.766,-13.112 z"
           id="path50"
           inkscape:connector-curvature="0"
           style="fill:#26992e" />
        <path
           d="m 440.63104,69.034593 c 0,0 -0.704,-2.043 -0.628,-2.232 0.076,-0.189 1.401,-0.243 1.97,-2.51 0.569,-2.267 4.057,-11.223 6.699,-13.617 2.642,-2.396 10.513,-7.014 10.686,-8.566 0.163,-1.551 2.747,-1.975 2.747,-1.975 0,0 0.828,-1.886 0.175,-2.607 -0.657,-0.717 -3.938,-1.681 -4.62,-4.648 -0.683,-2.972 2.656,-6.689 7.91,-8.163 5.245,-1.473 9.899,0.01 10.855,2.9 0.964,2.891 -1.351,5.384 -1.532,6.337 -0.184,0.957 1.506,2.156 1.506,2.156 0,0 2.439,-0.975 3.385,0.265 0.951,1.239 10.088,1.088 13.593,1.763 3.499,0.674 11.155,6.507 12.815,8.147 1.668,1.64 2.818,1.02 3.024,1.112 0.206,0.092 0.625,2.232 0.625,2.232 l -69.21,19.406 z"
           id="path52"
           inkscape:connector-curvature="0"
           style="fill:#26992e" />
      </g>
    </g>
  </g>
</svg>
