<?xml version="1.0" encoding="utf-8"?>
<!-- Generator: Adobe Illustrator 15.0.2, SVG Export Plug-In . SVG Version: 6.00 Build 0)  -->
<!DOCTYPE svg PUBLIC "-//W3C//DTD SVG 1.1//EN" "http://www.w3.org/Graphics/SVG/1.1/DTD/svg11.dtd">
<svg version="1.1" id="Layer_1" xmlns="http://www.w3.org/2000/svg" xmlns:xlink="http://www.w3.org/1999/xlink" x="0px" y="0px"
	 width="596.08px" height="197.684px" viewBox="0 0 596.08 197.684" enable-background="new 0 0 596.08 197.684"
	 xml:space="preserve">
<g id="Text" display="none">
	<rect x="326.591" y="41.196" display="inline" fill="none" width="132.909" height="211.442"/>
	
		<text transform="matrix(1 0 0 1 326.5908 181.8955)" display="inline" fill="#562F04" font-family="'Quicksand-Bold'" font-size="201" letter-spacing="-6">p</text>
	<g display="inline">
		<rect x="102.024" y="41.196" fill="none" width="242.98" height="211.442"/>
		
			<text transform="matrix(1 0 0 1 102.0244 181.8955)" fill="#26992E" font-family="'Quicksand-Bold'" font-size="201" letter-spacing="-6">ea</text>
	</g>
	<rect x="32.924" y="41.196" display="inline" fill="none" width="83.574" height="211.443"/>
	
		<text transform="matrix(1 0 0 1 32.9243 181.895)" display="inline" fill="#26992E" font-family="'Quicksand-Bold'" font-size="201" letter-spacing="-6">t</text>
	<rect x="573.162" y="41.196" display="inline" fill="none" width="128.487" height="211.442"/>
	
		<text transform="matrix(1 0 0 1 573.1621 181.8955)" display="inline" fill="#562F04" font-family="'Quicksand-Bold'" font-size="201" letter-spacing="-6">t</text>
</g>
<g>
	<path fill="#26992E" d="M44.586,59.396c3.081,0,5.729,1.074,7.939,3.216c2.211,2.145,3.316,4.724,3.316,7.739
		s-1.105,5.628-3.316,7.839s-4.858,3.316-7.939,3.316h-5.025v56.079c3.081,0,5.694,1.105,7.839,3.316
		c2.142,2.211,3.216,4.859,3.216,7.939c0,3.085-1.074,5.697-3.216,7.84c-2.145,2.145-4.758,3.216-7.839,3.216
		c-6.165,0-11.426-2.177-15.779-6.532c-4.356-4.354-6.532-9.613-6.532-15.779V81.505h-5.829c-3.084,0-5.697-1.071-7.839-3.216
		c-2.145-2.142-3.216-4.755-3.216-7.839c0-3.081,1.071-5.694,3.216-7.839c2.142-2.142,4.755-3.216,7.839-3.216h5.829V30.25
		c0-3.081,1.105-5.694,3.316-7.839c2.211-2.142,4.855-3.216,7.939-3.216c3.081,0,5.694,1.074,7.839,3.216
		c2.142,2.145,3.216,4.758,3.216,7.839v29.145H44.586z"/>
	<path fill="#26992E" d="M169.965,107.033c0,2.948-0.974,5.326-2.915,7.135c-1.944,1.809-4.522,2.713-7.738,2.713H95.394
		c1.206,5.764,3.483,10.186,6.834,13.267c4.287,4.959,10.553,7.939,18.794,8.944c8.241,1.006,15.376-0.635,21.406-4.924
		c2.01-2.143,4.689-3.217,8.04-3.217c3.348,0,5.694,0.873,7.035,2.613c3.75,4.155,3.75,8.512,0,13.064
		c-9.648,8.845-21.476,13.235-35.477,13.166c-14.004-0.066-25.728-4.99-35.175-14.773c-9.447-9.779-14.239-21.572-14.371-35.376
		c0.132-13.8,4.924-25.627,14.371-35.477c9.447-9.849,20.87-14.773,34.271-14.773c13.398,0,24.688,4.391,33.869,13.166
		c9.177,8.778,14.17,19.934,14.975,33.466V107.033z M121.524,78.491c-7.773,0.402-14.004,2.814-18.693,7.236
		c-4.692,4.422-7.506,9.114-8.442,14.07h56.883c-1.206-4.689-4.457-9.247-9.749-13.668
		C136.229,81.707,129.564,79.163,121.524,78.491z"/>
	<path fill="#26992E" d="M198.205,145.223c-9.18-9.78-13.769-21.607-13.769-35.477s4.588-25.728,13.769-35.577
		c9.177-9.849,20.533-14.773,34.069-14.773c9.513,0,18.423,2.949,26.733,8.844c0.669-2.544,1.941-4.655,3.819-6.332
		c1.875-1.674,4.187-2.513,6.935-2.513c2.745,0,5.157,1.074,7.236,3.216c2.076,2.145,3.115,4.692,3.115,7.638v78.993
		c0,2.949-1.04,5.462-3.115,7.537c-2.079,2.08-4.491,3.116-7.236,3.116c-2.748,0-5.06-0.804-6.935-2.412
		c-1.878-1.608-3.15-3.685-3.819-6.231c-8.175,5.764-17.085,8.644-26.733,8.644C218.738,159.896,207.381,155.006,198.205,145.223z
		 M205.943,109.746c0,8.109,2.443,14.908,7.336,20.401c4.89,5.496,11.187,8.241,18.894,8.241c7.704,0,14.07-2.745,19.095-8.241
		c5.025-5.493,7.538-12.261,7.538-20.301s-2.547-14.874-7.638-20.502c-5.094-5.628-11.426-8.442-18.995-8.442
		c-7.572,0-13.837,2.783-18.793,8.342C208.421,94.806,205.943,101.641,205.943,109.746z"/>
	<path fill="#562F04" d="M322.798,194.367c-2.211,2.211-4.824,3.316-7.839,3.316s-5.597-1.105-7.738-3.316
		c-2.145-2.211-3.216-4.724-3.216-7.537V70.048c0-2.946,1.037-5.458,3.116-7.537c2.076-2.076,4.554-3.116,7.437-3.116
		c2.88,0,5.358,0.804,7.437,2.412c2.076,1.608,3.316,3.552,3.718,5.829c8.442-5.493,17.553-8.241,27.336-8.241
		c13.398,0,24.855,4.959,34.371,14.874c9.513,9.918,14.271,21.777,14.271,35.577c0,13.803-4.758,25.562-14.271,35.275
		c-9.516,9.717-20.973,14.572-34.371,14.572c-10.32,0-19.296-2.745-26.934-8.241v35.377
		C326.115,189.644,325.009,192.156,322.798,194.367z M371.943,89.545c-5.226-5.493-11.592-8.241-19.095-8.241
		c-7.506,0-13.838,2.782-18.995,8.341c-5.16,5.562-7.738,12.497-7.738,20.803c0,8.311,2.613,14.809,7.839,19.497
		c5.091,5.628,11.356,8.442,18.793,8.442s13.8-2.814,19.095-8.442c5.292-5.628,7.94-12.292,7.94-19.999
		C379.782,102.243,377.169,95.444,371.943,89.545z"/>
</g>
<g>
	<path fill="#562F04" d="M584.824,59.396c3.081,0,5.729,1.074,7.939,3.216c2.211,2.145,3.316,4.724,3.316,7.739
		s-1.105,5.628-3.316,7.839s-4.858,3.316-7.939,3.316h-5.025v56.079c3.081,0,5.694,1.105,7.84,3.316
		c2.141,2.211,3.215,4.859,3.215,7.939c0,3.085-1.074,5.697-3.215,7.84c-2.146,2.145-4.759,3.216-7.84,3.216
		c-6.164,0-11.426-2.177-15.778-6.532c-4.356-4.354-6.532-9.613-6.532-15.779V81.505h-5.829c-3.084,0-5.697-1.071-7.839-3.216
		c-2.145-2.142-3.217-4.755-3.217-7.839c0-3.081,1.072-5.694,3.217-7.839c2.142-2.142,4.755-3.216,7.839-3.216h5.829V30.25
		c0-3.081,1.105-5.694,3.316-7.839c2.211-2.142,4.855-3.216,7.939-3.216c3.081,0,5.693,1.074,7.839,3.216
		c2.142,2.145,3.216,4.758,3.216,7.839v29.145H584.824z"/>
</g>
<g>
	<g>
		<ellipse fill="#290F01" cx="473.167" cy="162.729" rx="48.167" ry="5.896"/>
		<g>
			<path fill="#290F01" d="M514.888,59.404c5.632-14.131-1.051-20.75-0.548-22.182c0.507-1.437,4.245-7.809,11.094-13.888
				c-2.651-0.44-16.256,1.168-16.256,1.168l-69.283,19.57c-1.879,0.688-8.808,8.596-10.686,11.355
				c6.521-0.771,10.692,0.19,10.692,0.19s-0.058,1.729,0.362,4.255c0.293,0.809,37.997,0.749,37.997,0.749L514.888,59.404z"/>
			<path fill="#FFFFFF" d="M500.681,42.508c0,1.934-1.563,3.499-3.5,3.499c-1.935,0-3.5-1.565-3.5-3.499
				c0-1.932,1.565-3.495,3.5-3.495C499.117,39.013,500.681,40.576,500.681,42.508z"/>
			<path fill="#FFFFFF" d="M466.14,48.982c0,1.932-1.563,3.497-3.501,3.497c-1.936,0-3.494-1.565-3.494-3.497
				c0-1.933,1.559-3.5,3.494-3.5C464.576,45.482,466.14,47.05,466.14,48.982z"/>
		</g>
		<path fill="#26992E" d="M577.834,68.167c-2.75-0.667-11.296,3.683-16.417,11.5s-8.661,13.378-12.267,14.727
			c-3.607,1.352-7.877-1.169-9.396-1.414c-2.16-9.058-10.217-19.942-17.749-24.189c-0.292-8.569-2.104-10.259-2.104-10.259
			L477.675,60.5l-43.854-1.969c0,0-1.52,4.405-1.449,8.819c-5.713,5.694-8.769,7.372-12.971,13.954
			c-1.321,2.072-2.312,4.176-3.053,6.702c-2.446-0.162-4.192-1.261-4.192-1.261s-6.231-17.815-10.798-20.279
			c-4.564-2.463-12.027-4.021-18.404-1.194s-11.811,11-13.913,17.81c-2.101,6.813-3.115,18.546,2.9,29.627
			c6.015,11.091,13.623,21.656,29.562,25.572c15.941,3.914,25.125,4.857,25.125,4.857c0.899,1.225,1.832,2.417,2.814,3.571
			c4.09,3.393,7.664,3.42,10.392,5.708c0,0-0.143,5.792,1.595,6.227c1.737,0.436,13.365,4.2,36.246,3.623
			c22.883-0.583,35.345-2.32,36.355-4.2c1.018-1.888,1.378-5.438,1.378-5.438c3.465-2.889,8.76-5.181,12.216-8.028
			c1.313-1.683,2.529-3.439,3.671-5.252c0,0,13.821-3.313,18.965-6.938c5.146-3.623,9.493-10.982,11.016-13.913
			c1.522-2.924,6.004-19.09,9.142-25.997s6.533-11.376,9.146-12.438c2.607-1.064,7.983-1.758,7.646-3.208
			C581.875,73.938,580.584,68.833,577.834,68.167z M383.243,117.344c-5.287-6.236-10.795-24.783-7.099-34.927
			c3.695-10.147,9.709-12.753,18.041-11.016c8.333,1.741,10.146,17.317,11.304,24.708c1.16,7.393,8.262,7.537,8.262,7.537
			s-3.335,5.938,3.258,26.81C398.424,133.977,388.534,123.574,383.243,117.344z"/>
		<path fill="#26992E" d="M440.225,45.078c0,0-0.704-2.043-0.628-2.232s1.401-0.243,1.97-2.51s4.057-11.223,6.699-13.617
			c2.642-2.396,10.513-7.014,10.686-8.566c0.163-1.551,2.747-1.975,2.747-1.975s0.828-1.886,0.175-2.607
			c-0.657-0.717-3.938-1.681-4.62-4.648c-0.683-2.972,2.656-6.689,7.91-8.163c5.245-1.473,9.899,0.01,10.855,2.9
			c0.964,2.891-1.351,5.384-1.532,6.337c-0.184,0.957,1.506,2.156,1.506,2.156s2.439-0.975,3.385,0.265
			c0.951,1.239,10.088,1.088,13.593,1.763c3.499,0.674,11.155,6.507,12.815,8.147c1.668,1.64,2.818,1.02,3.024,1.112
			s0.625,2.232,0.625,2.232L440.225,45.078z"/>
	</g>
</g>
</svg>
